<?xml version="1.0" encoding="UTF-8" standalone="no"?><!DOCTYPE svg PUBLIC "-//W3C//DTD SVG 1.1//EN" "http://www.w3.org/Graphics/SVG/1.1/DTD/svg11.dtd"><svg width="100%" height="100%" viewBox="0 0 425 259" version="1.1" xmlns="http://www.w3.org/2000/svg" xmlns:xlink="http://www.w3.org/1999/xlink" xml:space="preserve" xmlns:serif="http://www.serif.com/" style="fill-rule:evenodd;clip-rule:evenodd;stroke-linejoin:round;stroke-miterlimit:2;"><rect id="Artboard1" x="0" y="0" width="424.631" height="258.605" style="fill:none;"/><path d="M52.717,122.762l-42.741,0l0,-67.552l17.93,0l0,62.076l24.811,0l0,5.476Zm-30.335,-5.476l-0,-56.6l-6.93,0l0,56.6l6.93,0Zm95.076,5.476l-18.123,0l-5.573,-18.608l-22,-0l-5.573,18.608l-5.718,0l20.256,-67.552l16.476,0l20.255,67.552Zm-7.317,-5.476l-17.009,-56.6l-6.639,0l16.961,56.6l6.687,0Zm-18.027,-18.657l-9.352,-31.11l-9.304,31.11l18.656,0Zm93.284,24.133l-18.802,0l-14.732,-24.52l-19.626,24.52l-7.026,0l23.648,-29.56l-22.776,-37.992l18.802,0l14.732,24.52l19.626,-24.52l7.026,0l-23.648,29.56l22.776,37.992Zm-9.692,-5.476l-33.921,-56.6l-6.009,0l33.921,56.6l6.009,0Zm48.653,5.476l-30.335,0l-0,-5.476l6.202,0l0,-56.6l-6.202,0l-0,-5.476l30.335,0l0,5.476l-6.203,0l0,56.6l6.203,0l0,5.476Zm-11.727,-5.476l-0,-56.6l-6.881,0l-0,56.6l6.881,0Zm-136.319,80.025l-15.168,-0l0,-67.552l15.168,-0c5.298,-0 10.354,0.832 15.167,2.495c4.814,1.664 9.135,4.095 12.963,7.293c3.829,3.199 6.76,6.857 8.796,10.976c2.035,4.119 3.052,8.457 3.052,13.012c0,4.555 -1.017,8.892 -3.052,13.011c-2.036,4.119 -4.967,7.778 -8.796,10.976c-3.828,3.198 -8.149,5.629 -12.963,7.293c-4.813,1.664 -9.869,2.496 -15.167,2.496Zm-2.762,-5.476l-0,-56.6l-6.93,-0l0,56.6l6.93,-0Zm30.335,-11.291c0.969,-1.066 1.874,-2.197 2.714,-3.392c2.81,-4.136 4.216,-8.675 4.216,-13.617c-0,-4.943 -1.406,-9.482 -4.216,-13.617c-0.84,-1.196 -1.745,-2.326 -2.714,-3.392l-0,34.018Zm-5.524,-38.767c-1.002,-0.679 -2.052,-1.325 -3.15,-1.939c-4.781,-2.552 -10.16,-4.054 -16.137,-4.506l-0,56.406c5.977,-0.453 11.356,-1.971 16.137,-4.555c1.098,-0.582 2.148,-1.212 3.15,-1.89l-0,-43.516Zm80.829,55.534l-55.146,-0l-0,-67.552l55.146,-0l0,5.476l-37.216,-0l-0,25.537l31.013,0l0,5.525l-31.013,-0l-0,25.538l37.216,-0l0,5.476Zm-42.741,-5.476l0,-56.6l-6.929,-0l-0,56.6l6.929,-0Zm78.068,5.476c-7.14,-0 -13.472,-1.648 -18.996,-4.943c-5.718,-3.748 -8.577,-8.19 -8.577,-13.326l-0,-2.763l5.476,0l-0,2.763c-0,2.326 1.009,4.45 3.028,6.372c2.019,1.922 4.709,3.473 8.069,4.652c3.359,1.179 7.026,1.769 11,1.769c3.424,-0 6.639,-0.453 9.643,-1.357l0,-22.485c-2.294,-0.614 -4.87,-1.204 -7.729,-1.769c-2.859,-0.565 -5.678,-1.211 -8.456,-1.938c-2.778,-0.727 -5.314,-1.688 -7.608,-2.884c-5.654,-3.036 -8.481,-7.495 -8.481,-13.374c0,-5.008 2.294,-9.385 6.882,-13.133c4.587,-3.424 9.837,-5.136 15.749,-5.136c5.912,-0 11.162,1.712 15.749,5.136c4.587,3.748 6.881,8.125 6.881,13.133l0,2.762l-5.524,-0l-0,-2.762c-0,-3.522 -1.672,-6.534 -5.016,-9.038c-3.343,-2.504 -7.373,-3.755 -12.09,-3.755c-1.195,-0 -2.342,0.097 -3.441,0.29l0,23.842c1.971,0.517 4.135,1.002 6.494,1.454c2.875,0.581 5.702,1.236 8.48,1.963c2.778,0.726 5.314,1.688 7.608,2.883c5.621,3.037 8.432,7.495 8.432,13.375c0,5.136 -2.859,9.578 -8.577,13.326c-5.525,3.295 -11.857,4.943 -18.996,4.943Zm-8.965,-39.591l-0,-20.596c-2.488,1.164 -4.466,2.698 -5.936,4.604c-1.47,1.906 -2.205,4.006 -2.205,6.3c-0,2.487 0.702,4.482 2.108,5.984c1.405,1.503 3.416,2.738 6.033,3.708Zm24.133,30.529c2.132,-1.196 3.82,-2.585 5.063,-4.168c1.244,-1.583 1.866,-3.263 1.866,-5.039c0,-2.294 -0.598,-4.16 -1.793,-5.597c-1.195,-1.438 -2.907,-2.642 -5.136,-3.611l-0,18.415Zm50.494,9.062l-30.336,-0l0,-5.476l6.203,-0l0,-56.6l-6.203,-0l0,-5.476l30.336,-0l-0,5.476l-6.203,-0l0,56.6l6.203,-0l-0,5.476Zm-11.727,-5.476l-0,-56.6l-6.881,-0l-0,56.6l6.881,-0Zm74.094,5.476l-24.278,-0c-5.589,-0 -10.678,-1.519 -15.265,-4.556c-4.587,-3.036 -8.246,-7.115 -10.976,-12.235c-2.73,-5.121 -4.095,-10.783 -4.095,-16.985c0,-6.203 1.365,-11.865 4.095,-16.985c2.73,-5.121 6.389,-9.199 10.976,-12.236c4.587,-3.037 9.676,-4.555 15.265,-4.555c4.813,-0 9.433,1.244 13.859,3.731c4.167,2.423 7.656,5.718 10.467,9.886l-4.555,3.053c-2.423,-3.554 -5.347,-6.308 -8.771,-8.263c-3.425,-1.954 -7.091,-2.931 -11,-2.931c-4.523,-0 -8.675,1.276 -12.454,3.828l-0,48.943c3.779,2.553 7.931,3.829 12.454,3.829l7.365,-0l5.137,-25.538l-11.824,-0l-0,-5.525l30.917,0l-7.317,36.539Zm-42.208,-14.199l-0,-39.155c-2.165,2.585 -3.861,5.549 -5.088,8.892c-1.228,3.344 -1.842,6.906 -1.842,10.686c0,3.779 0.614,7.341 1.842,10.685c1.227,3.344 2.923,6.308 5.088,8.892Zm37.701,8.723l5.136,-25.538l-6.832,-0l-5.088,25.538l6.784,-0Zm74.724,5.476l-16.719,-0l-32.952,-54.904l0,54.904l-5.476,-0l0,-67.552l16.719,-0l32.952,54.904l-0,-54.904l5.476,-0l-0,67.552Zm-7.608,-5.476l-33.922,-56.6l-6.009,-0l33.922,56.6l6.009,-0Zm-6.931,12.472c-29.47,72.356 -100.821,22.811 -183.714,22.811c-82.893,-0 -183.133,17.664 -183.133,-86.999l8.582,-0c-0,104.663 96.118,79.08 174.551,79.08c78.433,0 146.123,52.986 175.133,-14.892l8.581,0Zm-363.279,-157.316c31.363,-67.973 99.848,-21.872 179.565,-21.872c106.916,0 194.441,-8.38 198.131,97.643l-7.924,0c-3.686,-101.652 -87.661,-89.724 -190.207,-89.724c-75.227,-0 -140.014,-49.519 -170.804,13.953l-8.761,-0Z" style="fill:#fff;"/></svg>